# This file uses centimeters as units for non-parametric coordinates.

mtllib Platform.mtl
g default
v -2.017090 3.112478 2.793816
v 0.987509 3.112478 2.793816
v -2.017090 4.112478 2.993479
v 0.987509 4.112478 2.993479
v -2.017090 3.112478 -2.796730
v -2.017090 4.112478 -2.996392
v 0.987509 4.112478 -2.996392
v 0.987509 3.112478 -2.796730
v -2.017090 3.612478 2.993479
v 0.987509 3.612478 2.993479
v 0.987509 3.612478 -2.996392
v -2.017090 3.612478 -2.996392
v -2.017090 3.654320 -2.796392
v -2.017090 3.938892 -2.796392
v -2.017090 3.654320 2.793478
v -2.017090 3.938892 2.793478
v -2.017090 3.286064 -2.661239
v -2.017090 3.286064 2.658323
v 0.987509 3.654320 2.793478
v 0.987509 3.654320 -2.796392
v 0.987509 3.938892 -2.796392
v 0.987509 3.938892 2.793478
v 0.987509 3.286064 -2.661239
v 0.987509 3.286064 2.658323
v -1.879695 3.654320 -2.796392
v -1.879695 3.938892 -2.796392
v -1.879695 3.654320 2.793478
v -1.879695 3.938892 2.793478
v -1.879695 3.286064 -2.661239
v -1.879695 3.286064 2.658323
v 0.850113 3.654320 2.793478
v 0.850113 3.654320 -2.796392
v 0.850113 3.938892 -2.796392
v 0.850113 3.938892 2.793478
v 0.850113 3.286064 -2.661239
v 0.850113 3.286064 2.658323
vt 0.642612 0.439549
vt 0.968941 0.439550
vt 0.968941 0.493855
vt 0.642612 0.493854
vt 0.274253 0.261063
vt 0.274262 0.201498
vt 0.901471 0.201596
vt 0.901462 0.261162
vt 0.968939 0.842589
vt 0.642610 0.842588
vt 0.901465 0.201530
vt 0.274256 0.201566
vt 0.274259 0.261131
vt 0.901468 0.261096
vt 0.968939 0.896894
vt 0.642610 0.896892
vt 0.303959 0.938858
vt 0.303913 0.403731
vt 0.603050 0.403685
vt 0.603096 0.938812
vt 0.642612 0.384014
vt 0.968941 0.384015
vt 0.886296 0.124449
vt 0.289416 0.124483
vt 0.642610 0.952428
vt 0.968939 0.952429
vt 0.289439 0.124418
vt 0.886318 0.124512
vt 0.198115 0.330909
vt 0.198116 0.188598
vt 0.228097 0.200299
vt 0.228096 0.287343
vt 0.979076 0.188601
vt 0.979076 0.330912
vt 0.949095 0.287346
vt 0.949095 0.200302
vt 0.228047 0.061216
vt 0.248357 0.097318
vt 0.949147 0.061220
vt 0.928835 0.097321
vt 0.979076 0.188601
vt 0.979076 0.330912
vt 0.949095 0.287346
vt 0.949095 0.200302
vt 0.198115 0.330908
vt 0.228096 0.287342
vt 0.198116 0.188597
vt 0.228097 0.200298
vt 0.228047 0.061216
vt 0.949147 0.061220
vt 0.928836 0.097321
vt 0.248358 0.097317
vt 0.276480 0.460957
vt 0.238470 0.460957
vt 0.238470 0.479309
vt 0.276480 0.479309
vt 0.243459 0.441538
vt 0.281470 0.441538
vt 0.281470 0.423186
vt 0.243459 0.423186
vt 0.146100 0.042097
vt 0.146100 0.501233
vt 0.162313 0.501233
vt 0.162313 0.042097
vt 0.188338 0.460957
vt 0.188338 0.479309
vt 0.112115 0.044908
vt 0.112115 0.501712
vt 0.128724 0.501712
vt 0.128724 0.044908
vt 0.193328 0.441538
vt 0.193328 0.423186
vt 0.243459 0.423186
vt 0.281470 0.423186
vt 0.281470 0.441538
vt 0.243459 0.441538
vt 0.146100 0.501233
vt 0.146100 0.042097
vt 0.162313 0.042097
vt 0.162313 0.501233
vt 0.276480 0.479309
vt 0.238469 0.479309
vt 0.238470 0.460957
vt 0.276480 0.460957
vt 0.112115 0.501712
vt 0.112115 0.044908
vt 0.128724 0.044908
vt 0.128724 0.501712
vt 0.193328 0.423186
vt 0.193328 0.441538
vt 0.188338 0.479309
vt 0.188338 0.460957
vn 0.000000 0.000000 1.000000
vn 0.000000 0.000000 1.000000
vn 0.000000 0.000000 1.000000
vn 0.000000 0.000000 1.000000
vn -1.000000 0.000000 0.000000
vn -1.000000 -0.000000 0.000000
vn -1.000000 -0.000000 0.000000
vn -1.000000 0.000000 0.000000
vn 0.000000 1.000000 0.000000
vn 0.000000 1.000000 0.000000
vn 0.000000 1.000000 0.000000
vn 0.000000 1.000000 0.000000
vn 1.000000 -0.000000 0.000000
vn 1.000000 -0.000000 0.000000
vn 1.000000 0.000000 0.000000
vn 1.000000 0.000000 0.000000
vn 0.000000 0.000000 -1.000000
vn 0.000000 0.000000 -1.000000
vn 0.000000 0.000000 -1.000000
vn 0.000000 0.000000 -1.000000
vn 0.000000 -1.000000 0.000000
vn 0.000000 -1.000000 0.000000
vn 0.000000 -1.000000 0.000000
vn 0.000000 -1.000000 0.000000
vn 0.000000 -0.370851 0.928692
vn 0.000000 -0.370851 0.928692
vn 0.000000 -0.370851 0.928692
vn 0.000000 -0.370851 0.928692
vn 1.000000 -0.000000 0.000000
vn 1.000000 -0.000000 0.000000
vn 0.000000 -0.370850 -0.928693
vn 0.000000 -0.370850 -0.928693
vn 0.000000 -0.370850 -0.928693
vn 0.000000 -0.370850 -0.928693
vn -1.000000 -0.000000 0.000000
vn -1.000000 -0.000000 0.000000
vn -1.000000 0.000000 0.000000
vn -1.000000 0.000000 0.000000
vn -1.000000 0.000000 0.000000
vn -1.000000 0.000000 0.000000
vn -1.000000 0.000000 0.000000
vn -1.000000 0.000000 0.000000
vn -1.000000 0.000000 0.000000
vn -1.000000 0.000000 0.000000
vn -1.000000 -0.000000 0.000000
vn -1.000000 -0.000000 0.000000
vn -1.000000 -0.000000 0.000000
vn -1.000000 -0.000000 0.000000
vn 1.000000 0.000000 0.000000
vn 1.000000 0.000000 0.000000
vn 1.000000 0.000000 0.000000
vn 1.000000 0.000000 0.000000
vn 1.000000 0.000000 0.000000
vn 1.000000 0.000000 0.000000
vn 1.000000 -0.000000 0.000000
vn 1.000000 -0.000000 0.000000
vn 1.000000 -0.000000 0.000000
vn 1.000000 -0.000000 0.000000
vn 1.000000 -0.000000 0.000000
vn 1.000000 -0.000000 0.000000
vn 0.000000 0.000000 1.000000
vn 0.000000 0.202729 0.979235
vn 0.000000 0.202729 0.979235
vn 0.000000 0.000000 1.000000
vn 0.000000 0.202731 -0.979235
vn 0.000000 0.000000 -1.000000
vn 0.000000 0.000000 -1.000000
vn 0.000000 0.202731 -0.979235
vn 0.000000 -1.000000 0.000000
vn 0.000000 -1.000000 0.000000
vn 0.000000 -1.000000 0.000000
vn 0.000000 -1.000000 0.000000
vn 0.000000 0.344539 0.938772
vn 0.000000 0.344539 0.938772
vn 0.000000 1.000000 0.000000
vn 0.000000 1.000000 0.000000
vn 0.000000 1.000000 0.000000
vn 0.000000 1.000000 0.000000
vn 0.000000 0.344541 -0.938771
vn 0.000000 0.344541 -0.938771
vn 0.000000 0.202729 0.979235
vn 0.000000 0.000000 1.000000
vn 0.000000 0.000000 1.000000
vn 0.000000 0.202729 0.979235
vn 0.000000 -1.000000 0.000000
vn 0.000000 -1.000000 0.000000
vn 0.000000 -1.000000 0.000000
vn 0.000000 -1.000000 0.000000
vn 0.000000 0.000000 -1.000000
vn 0.000000 0.202731 -0.979235
vn 0.000000 0.202731 -0.979235
vn 0.000000 0.000000 -1.000000
vn 0.000000 1.000000 0.000000
vn 0.000000 1.000000 0.000000
vn 0.000000 1.000000 0.000000
vn 0.000000 1.000000 0.000000
vn 0.000000 0.344539 0.938772
vn 0.000000 0.344539 0.938772
vn 0.000000 0.344541 -0.938771
vn 0.000000 0.344541 -0.938771
s off
g Leg5
usemtl initialShadingGroup
f 9/1/1 10/2/2 4/3/3 3/4/4
s 1
f 26/5/5 25/6/6 27/7/7 28/8/8
s off
f 3/4/9 4/3/10 7/9/11 6/10/12
s 2
f 31/11/13 32/12/14 33/13/15 34/14/16
s off
f 11/15/17 12/16/18 6/10/19 7/9/20
f 1/17/21 5/18/22 8/19/23 2/20/24
f 1/21/25 2/22/26 10/2/27 9/1/28
s 2
f 36/23/29 35/24/30 32/12/14 31/11/13
s off
f 5/25/31 12/16/32 11/15/33 8/26/34
s 1
f 27/7/7 25/6/6 29/27/35 30/28/36
s 3
f 6/29/37 12/30/38 13/31/39 14/32/40
f 9/33/41 3/34/42 16/35/43 15/36/44
f 3/34/42 6/29/37 14/32/40 16/35/43
f 12/30/38 5/37/45 17/38/46 13/31/39
f 5/37/45 1/39/47 18/40/48 17/38/46
f 1/39/47 9/33/41 15/36/44 18/40/48
s 4
f 11/41/49 7/42/50 21/43/51 20/44/52
f 7/42/50 4/45/53 22/46/54 21/43/51
f 4/45/53 10/47/55 19/48/56 22/46/54
f 2/49/57 8/50/58 23/51/59 24/52/60
f 8/50/58 11/41/49 20/44/52 23/51/59
f 10/47/55 2/49/57 24/52/60 19/48/56
s 5
f 14/53/61 13/54/62 25/55/63 26/56/64
s 6
f 15/57/65 16/58/66 28/59/67 27/60/68
s off
f 16/61/69 14/62/70 26/63/71 28/64/72
s 5
f 13/54/62 17/65/73 29/66/74 25/55/63
s off
f 17/67/75 18/68/76 30/69/77 29/70/78
s 6
f 18/71/79 15/57/65 27/60/68 30/72/80
s 7
f 20/73/81 21/74/82 33/75/83 32/76/84
s off
f 21/77/85 22/78/86 34/79/87 33/80/88
s 8
f 22/81/89 19/82/90 31/83/91 34/84/92
s off
f 24/85/93 23/86/94 35/87/95 36/88/96
s 7
f 23/89/97 20/73/81 32/76/84 35/90/98
s 8
f 19/82/90 24/91/99 36/92/100 31/83/91
